<?xml version="1.0" standalone="no"?>
<!DOCTYPE svg PUBLIC "-//W3C//DTD SVG 20010904//EN"
 "http://www.w3.org/TR/2001/REC-SVG-20010904/DTD/svg10.dtd">
<svg version="1.0" xmlns="http://www.w3.org/2000/svg"
 width="1080.000000pt" height="906.000000pt" viewBox="0 0 1080.000000 906.000000"
 preserveAspectRatio="xMidYMid meet">

<g transform="translate(0.000000,906.000000) scale(0.100000,-0.100000)"
fill="#000000" stroke="none">
<path d="M0 4515 l0 -4515 5400 0 5400 0 0 4515 0 4515 -5400 0 -5400 0 0
-4515z m7707 1921 l893 -1389 0 -454 0 -453 -1065 0 -1065 0 0 -495 0 -495
-515 0 -515 0 0 495 0 496 -131 -3 -131 -3 -38 -115 c-72 -225 -158 -371 -304
-516 -236 -237 -542 -356 -986 -384 -306 -19 -591 22 -840 121 -350 140 -628
427 -748 770 -35 98 -69 251 -74 324 l-2 50 459 77 c253 42 463 77 466 77 4 1
10 -40 14 -90 12 -164 47 -260 121 -339 87 -93 232 -140 431 -140 183 0 304
42 392 135 91 96 126 203 141 425 5 82 10 828 10 1718 l0 1572 505 0 505 0 0
-1415 0 -1415 105 0 105 0 0 1420 0 1420 687 -2 686 -3 894 -1389z m293 1384
c0 -5 9 -10 20 -10 11 0 20 -4 20 -10 0 -5 7 -10 15 -10 24 0 62 -43 70 -78 3
-18 11 -32 16 -32 12 0 12 -147 0 -155 -5 -3 -12 -19 -16 -36 -4 -16 -17 -41
-30 -54 -13 -13 -38 -26 -54 -30 -17 -4 -33 -11 -36 -16 -8 -12 -155 -12 -155
0 0 5 -14 13 -32 16 -35 8 -78 46 -78 70 0 8 -4 15 -10 15 -5 0 -10 9 -10 20
0 11 -4 20 -10 20 -14 0 -12 121 3 153 6 15 15 27 20 27 4 0 7 7 7 15 0 9 11
27 25 40 13 14 31 25 40 25 8 0 15 3 15 8 0 4 10 12 23 18 28 15 157 18 157 4z
m-5030 -6331 c130 -30 276 -144 332 -261 105 -216 66 -443 -102 -602 -76 -71
-150 -111 -248 -132 -84 -17 -120 -17 -204 0 -105 23 -175 61 -254 140 -163
163 -198 375 -99 585 61 127 197 238 331 270 54 12 190 13 244 0z m6844 -19
c109 -42 196 -151 196 -246 l0 -40 -104 14 -103 15 -17 38 c-23 51 -81 79
-162 79 -83 -1 -138 -27 -154 -75 -27 -83 10 -109 241 -168 75 -20 159 -47
186 -60 140 -71 188 -226 117 -375 -79 -163 -354 -229 -589 -141 -108 40 -191
145 -202 255 -7 63 -12 62 116 39 80 -14 100 -24 101 -52 0 -23 61 -82 98 -94
91 -31 253 -3 281 49 16 30 13 84 -5 110 -23 33 -60 49 -206 88 -219 58 -294
101 -335 192 -47 101 -21 223 64 303 80 76 154 99 308 95 86 -2 123 -8 169
-26z m-7524 -75 l0 -95 -255 0 -256 0 3 -107 3 -108 223 -3 222 -2 0 -95 0
-95 -222 -2 -223 -3 -3 -197 -2 -198 -105 0 -105 0 0 500 0 500 360 0 360 0 0
-95z m4660 0 l0 -95 -250 0 -250 0 0 -110 0 -110 225 0 225 0 0 -95 0 -95
-225 0 -225 0 0 -105 0 -105 275 0 275 0 0 -95 0 -95 -382 2 -383 3 -3 485
c-1 267 0 491 3 498 3 9 85 12 360 12 l355 0 0 -95z m-5542 -307 c-3 -386 -3
-394 -26 -443 -30 -66 -83 -118 -146 -147 -42 -18 -69 -22 -151 -23 -94 0
-105 2 -167 33 -91 44 -150 121 -160 207 -3 29 -1 30 52 41 30 6 76 14 103 17
l47 7 0 -31 c0 -20 10 -40 29 -60 25 -24 37 -29 81 -29 63 0 96 21 110 69 6
21 10 183 10 394 l0 357 111 0 110 0 -3 -392z m2294 33 c3 -345 4 -361 24
-387 44 -60 67 -69 174 -69 110 0 137 12 175 76 19 32 20 55 23 387 l3 352
110 0 110 0 -3 -362 c-3 -349 -4 -365 -26 -419 -63 -157 -230 -242 -442 -226
-146 12 -248 62 -307 150 -60 90 -63 113 -63 504 l0 353 110 0 109 0 3 -359z
m1380 339 c81 -25 138 -73 175 -148 24 -50 28 -69 28 -147 0 -71 -5 -100 -21
-136 -31 -66 -86 -123 -144 -148 -34 -15 -48 -26 -43 -34 4 -7 62 -85 130
-174 68 -89 123 -166 123 -172 0 -7 -43 -11 -128 -11 l-128 0 -124 178 -125
177 -53 3 -52 3 0 -180 0 -181 -110 0 -110 0 0 495 0 495 259 0 c230 0 266 -2
323 -20z m986 -377 l-3 -398 -28 -57 c-16 -32 -45 -71 -65 -88 -94 -77 -281
-91 -402 -29 -73 36 -149 144 -150 210 0 25 4 27 78 38 42 7 86 15 98 18 18 4
22 -1 28 -36 9 -56 43 -81 112 -81 41 0 59 5 81 24 l28 24 3 386 3 386 110 0
110 0 -3 -397z m1869 -81 c116 -262 215 -485 219 -495 6 -16 -1 -17 -100 -15
l-107 3 -47 107 -47 108 -248 0 -247 0 -53 -107 -53 -108 -97 -3 c-53 -1 -97
1 -97 6 0 5 93 214 206 463 114 250 213 469 220 487 l14 32 113 0 112 -1 212
-477z m773 177 l215 -301 3 301 2 301 90 0 90 0 0 -495 0 -496 -92 3 -91 3
-246 335 -246 335 -3 -338 -2 -337 -95 0 -95 0 0 495 0 495 128 0 127 0 215
-301z"/>
<path d="M6470 5887 l0 -897 551 0 551 0 -20 33 c-11 17 -259 421 -551 896
l-531 864 0 -896z"/>
<path d="M8082 4949 c-70 -12 -120 -39 -165 -88 -40 -44 -52 -87 -45 -160 9
-97 68 -142 246 -191 63 -17 127 -37 143 -46 60 -30 63 -96 6 -138 -22 -16
-42 -20 -100 -20 -86 0 -129 21 -155 75 -16 34 -21 37 -72 43 -30 4 -65 9 -79
13 -23 6 -24 5 -17 -36 22 -141 136 -221 315 -221 121 0 184 20 242 79 85 84
92 208 16 289 -27 29 -99 67 -147 77 -83 18 -206 58 -222 72 -25 23 -23 77 4
102 45 43 157 39 202 -6 14 -14 26 -31 26 -38 0 -15 21 -21 103 -30 l57 -7 0
31 c0 43 -31 101 -73 138 -60 53 -181 79 -285 62z"/>
<path d="M4380 4565 l0 -375 288 2 287 3 3 68 3 67 -216 0 -215 0 0 80 0 80
170 0 170 0 0 75 0 75 -170 0 -170 0 0 80 0 80 195 0 195 0 0 70 0 70 -270 0
-270 0 0 -375z"/>
<path d="M5721 4898 c-10 -24 -84 -188 -165 -365 -80 -178 -146 -327 -146
-333 0 -6 30 -10 70 -10 l71 0 39 85 39 85 189 0 189 0 35 -82 36 -83 81 -3
80 -3 -12 29 c-7 15 -82 184 -167 375 l-155 347 -83 0 -83 0 -18 -42z m169
-251 c29 -70 51 -130 48 -133 -3 -2 -57 -3 -121 -2 l-116 3 53 120 c29 66 55
129 59 139 11 28 18 16 77 -127z"/>
<path d="M6700 4565 l0 -375 70 0 70 0 2 258 3 257 189 -257 189 -258 68 0 69
0 0 375 0 375 -70 0 -70 0 -2 -227 -3 -227 -161 225 -161 224 -96 3 -97 3 0
-376z"/>
<path d="M7895 7780 c-3 -5 -15 -10 -26 -10 -11 0 -40 -20 -64 -45 -25 -24
-45 -53 -45 -64 0 -11 -4 -23 -10 -26 -5 -3 -10 -19 -10 -36 0 -16 5 -29 10
-29 6 0 10 -12 10 -26 0 -30 71 -104 100 -104 10 0 22 -4 25 -10 10 -16 79
-12 116 7 64 32 109 99 109 163 0 68 -75 170 -125 170 -14 0 -25 5 -25 10 0 6
-13 10 -29 10 -17 0 -33 -4 -36 -10z m75 -60 c0 -5 7 -10 15 -10 8 0 15 -7 15
-15 0 -8 5 -15 10 -15 15 0 12 -31 -6 -51 -17 -19 -12 -79 7 -79 5 0 9 -9 9
-20 0 -11 5 -20 10 -20 6 0 10 -4 10 -10 0 -5 -17 -10 -39 -10 -35 0 -39 3
-45 31 -7 35 -27 59 -50 59 -12 0 -16 -11 -16 -45 0 -43 -1 -45 -30 -45 l-30
0 0 120 0 120 70 0 c40 0 70 -4 70 -10z"/>
<path d="M7890 7645 c0 -21 5 -25 30 -25 25 0 30 4 30 25 0 21 -5 25 -30 25
-25 0 -30 -4 -30 -25z"/>
<path d="M2743 1269 c-64 -25 -131 -88 -163 -154 -32 -67 -33 -170 -3 -236 91
-202 349 -245 492 -83 49 56 71 118 71 203 0 204 -205 344 -397 270z"/>
<path d="M4720 1165 l0 -145 120 0 c188 0 225 24 225 146 0 66 -3 76 -26 99
-34 35 -81 44 -211 45 l-108 0 0 -145z"/>
<path d="M7537 1109 c-43 -99 -76 -183 -74 -185 2 -3 72 -3 155 -2 l150 3 -69
165 c-38 91 -72 173 -76 183 -6 13 -29 -31 -86 -164z"/>
</g>
</svg>
